<?xml version="1.0" encoding="UTF-8" standalone="no"?>
<svg width="122px" height="29px" viewBox="0 0 122 29" version="1.1" xmlns="http://www.w3.org/2000/svg" xmlns:xlink="http://www.w3.org/1999/xlink" xmlns:sketch="http://www.bohemiancoding.com/sketch/ns">
    <!-- Generator: Sketch 3.3 (11970) - http://www.bohemiancoding.com/sketch -->
    <title>CiteAb</title>
    <desc>Created with Sketch.</desc>
    <defs></defs>
    <g id="Page-1" stroke="none" stroke-width="1" fill="none" fill-rule="evenodd" sketch:type="MSPage">
        <path d="M14.56,28.48 C20.44,28.48 23.8,25.24 25.72,21.92 L20.84,19.56 C19.72,21.76 17.32,23.44 14.56,23.44 C9.72,23.44 6.2,19.72 6.2,14.68 C6.2,9.64 9.72,5.92 14.56,5.92 C17.32,5.92 19.72,7.64 20.84,9.8 L25.72,7.4 C23.84,4.08 20.44,0.88 14.56,0.88 C6.56,0.88 0.36,6.48 0.36,14.68 C0.36,22.88 6.56,28.48 14.56,28.48 L14.56,28.48 Z M31.52,6.6 C33.2,6.6 34.56,5.24 34.56,3.56 C34.56,1.88 33.2,0.56 31.52,0.56 C29.88,0.56 28.48,1.88 28.48,3.56 C28.48,5.24 29.88,6.6 31.52,6.6 L31.52,6.6 Z M34.08,28 L34.08,8.68 L29,8.68 L29,28 L34.08,28 Z M45.6,28.48 C47.72,28.48 49.08,27.92 49.84,27.24 L48.76,23.4 C48.48,23.68 47.76,23.96 47,23.96 C45.88,23.96 45.24,23.04 45.24,21.84 L45.24,13.12 L49.16,13.12 L49.16,8.68 L45.24,8.68 L45.24,3.4 L40.12,3.4 L40.12,8.68 L36.92,8.68 L36.92,13.12 L40.12,13.12 L40.12,23.2 C40.12,26.64 42.04,28.48 45.6,28.48 L45.6,28.48 Z M61.72,28.48 C64.72,28.48 67.76,27.56 69.68,25.8 L67.44,22.52 C66.2,23.72 63.92,24.44 62.28,24.44 C59,24.44 57.04,22.4 56.72,19.96 L71.08,19.96 L71.08,18.84 C71.08,12.52 67.16,8.2 61.4,8.2 C55.52,8.2 51.4,12.72 51.4,18.32 C51.4,24.52 55.84,28.48 61.72,28.48 L61.72,28.48 Z M66.16,16.52 L56.64,16.52 C56.88,14.6 58.24,12.24 61.4,12.24 C64.76,12.24 66.04,14.68 66.16,16.52 L66.16,16.52 Z M99.76,28 L89.48,1.32 L82.36,1.32 L72.04,28 L78.52,28 L80.2,23.48 L91.64,23.48 L93.28,28 L99.76,28 Z M90.08,18.48 L81.76,18.48 L85.92,7 L90.08,18.48 Z M107.2,21.8 L107.2,14.96 C108.04,13.68 109.92,12.72 111.56,12.72 C114.52,12.72 116.48,15 116.48,18.36 C116.48,21.72 114.52,23.96 111.56,23.96 C109.92,23.96 108.04,23.04 107.2,21.8 L107.2,21.8 Z M107.2,28 L107.2,25.52 C108.72,27.44 110.84,28.48 113.16,28.48 C118.04,28.48 121.72,24.8 121.72,18.36 C121.72,12.04 118.08,8.2 113.16,8.2 C110.88,8.2 108.72,9.2 107.2,11.16 L107.2,1.32 L102.12,1.32 L102.12,28 L107.2,28 Z" id="CiteAb" fill="#FFFFFF" sketch:type="MSShapeGroup"></path>
    </g>
</svg>